<svg width="1024" height="1024" viewBox="0 0 1024 1024" fill="none" xmlns="http://www.w3.org/2000/svg">
<path d="M741.822 279.645C741.822 332.777 698.75 375.849 645.617 375.849C592.485 375.849 549.413 332.777 549.413 279.645C549.413 226.512 592.485 183.44 645.617 183.44C698.75 183.44 741.822 226.512 741.822 279.645Z" fill="#FFBABE"/>
<path fill-rule="evenodd" clip-rule="evenodd" d="M645.617 197.234C600.102 197.234 563.205 234.131 563.205 279.645C563.205 325.16 600.102 362.057 645.617 362.057C691.132 362.057 728.029 325.16 728.029 279.645C728.029 234.131 691.132 197.234 645.617 197.234ZM535.62 279.645C535.62 218.895 584.867 169.648 645.617 169.648C706.367 169.648 755.614 218.895 755.614 279.645C755.614 340.395 706.367 389.643 645.617 389.643C584.867 389.643 535.62 340.395 535.62 279.645Z" fill="#FFAAAF"/>
<path d="M345.029 296.89C361.416 272.404 397.417 272.404 413.805 296.89L690.787 710.758C709.187 738.251 689.481 775.15 656.399 775.15H102.434C69.3522 775.15 49.6468 738.251 68.0467 710.758L345.029 296.89Z" fill="#53E1FF"/>
<path fill-rule="evenodd" clip-rule="evenodd" d="M333.566 289.219C355.416 256.571 403.417 256.572 425.267 289.219L702.249 703.087C726.782 739.745 700.508 788.944 656.399 788.944H102.434C58.3244 788.944 32.0505 739.745 56.5837 703.087L333.566 289.219ZM402.342 304.562C391.417 288.238 367.416 288.238 356.491 304.562L79.5089 718.43C67.2423 736.759 80.3792 761.358 102.434 761.358H656.399C678.454 761.358 691.59 736.759 679.324 718.43L402.342 304.562Z" fill="#12D6FF"/>
<path d="M725.016 468.636C741.402 444.142 777.414 444.142 793.8 468.636L956.128 711.281C974.521 738.775 954.815 775.667 921.736 775.667H597.08C564.001 775.667 544.295 738.775 562.688 711.281L725.016 468.636Z" fill="#4DAEFF"/>
<path fill-rule="evenodd" clip-rule="evenodd" d="M713.552 460.967C735.4 428.308 783.415 428.309 805.263 460.967L967.591 703.612C992.116 740.271 965.841 789.461 921.736 789.461H597.08C552.974 789.461 526.7 740.271 551.224 703.612L713.552 460.967ZM782.335 476.306C771.411 459.976 747.404 459.976 736.48 476.306L574.152 718.951C561.89 737.28 575.027 761.875 597.08 761.875H921.736C943.788 761.875 956.926 737.28 944.663 718.951L782.335 476.306Z" fill="#38A5FF"/>
</svg>
