<svg width="25" height="24" viewBox="0 0 25 24" fill="none" xmlns="http://www.w3.org/2000/svg">
<path d="M21.956 10.154C22.079 10.813 22.146 11.502 22.146 12.221C22.146 17.845 18.382 21.844 12.697 21.844C11.4042 21.8444 10.1239 21.59 8.92943 21.0955C7.73492 20.6009 6.64957 19.8758 5.73539 18.9616C4.82121 18.0475 4.09612 16.9621 3.60155 15.7676C3.10699 14.5731 2.85263 13.2929 2.85303 12C2.85263 10.7072 3.10699 9.42691 3.60155 8.2324C4.09612 7.0379 4.82121 5.95255 5.73539 5.03837C6.64957 4.12419 7.73492 3.3991 8.92943 2.90453C10.1239 2.40997 11.4042 2.15561 12.697 2.15601C15.355 2.15601 17.576 3.13401 19.28 4.72201L16.505 7.49701V7.49001C15.472 6.50601 14.161 6.00101 12.697 6.00101C9.44903 6.00101 6.80903 8.74501 6.80903 11.994C6.80903 15.242 9.44903 17.992 12.697 17.992C15.644 17.992 17.65 16.307 18.062 13.993H12.697V10.154H21.957H21.956Z" fill="white"/>
</svg>
